<svg xmlns="http://www.w3.org/2000/svg" version="1.1" xmlns:xlink="http://www.w3.org/1999/xlink" xmlns:svgjs="http://svgjs.com/svgjs" width="1440" height="560" preserveAspectRatio="none" viewBox="0 0 1440 560"><g mask="url(&quot;#SvgjsMask1015&quot;)" fill="none"><rect width="1440" height="560" x="0" y="0" fill="rgba(0, 0, 0, 1)"></rect><path d="M640 210L639 -50" stroke-width="10" stroke="url(#SvgjsLinearGradient1016)" stroke-linecap="round" class="Down"></path><path d="M108 280L107 -74" stroke-width="8" stroke="url(#SvgjsLinearGradient1016)" stroke-linecap="round" class="Down"></path><path d="M56 502L55 196" stroke-width="10" stroke="url(#SvgjsLinearGradient1016)" stroke-linecap="round" class="Down"></path><path d="M455 187L454 467" stroke-width="6" stroke="url(#SvgjsLinearGradient1017)" stroke-linecap="round" class="Up"></path><path d="M737 218L736 485" stroke-width="10" stroke="url(#SvgjsLinearGradient1017)" stroke-linecap="round" class="Up"></path><path d="M1306 9L1305 -207" stroke-width="6" stroke="url(#SvgjsLinearGradient1017)" stroke-linecap="round" class="Up"></path><path d="M917 432L916 61" stroke-width="10" stroke="url(#SvgjsLinearGradient1016)" stroke-linecap="round" class="Down"></path><path d="M3 212L2 402" stroke-width="6" stroke="url(#SvgjsLinearGradient1016)" stroke-linecap="round" class="Down"></path><path d="M433 509L432 166" stroke-width="10" stroke="url(#SvgjsLinearGradient1017)" stroke-linecap="round" class="Up"></path><path d="M992 401L991 134" stroke-width="6" stroke="url(#SvgjsLinearGradient1016)" stroke-linecap="round" class="Down"></path><path d="M531 474L530 616" stroke-width="10" stroke="url(#SvgjsLinearGradient1017)" stroke-linecap="round" class="Up"></path><path d="M1154 123L1153 -218" stroke-width="8" stroke="url(#SvgjsLinearGradient1017)" stroke-linecap="round" class="Up"></path><path d="M274 114L273 533" stroke-width="8" stroke="url(#SvgjsLinearGradient1016)" stroke-linecap="round" class="Down"></path><path d="M1065 42L1064 383" stroke-width="8" stroke="url(#SvgjsLinearGradient1016)" stroke-linecap="round" class="Down"></path><path d="M402 405L401 812" stroke-width="10" stroke="url(#SvgjsLinearGradient1017)" stroke-linecap="round" class="Up"></path><path d="M509 399L508 743" stroke-width="10" stroke="url(#SvgjsLinearGradient1016)" stroke-linecap="round" class="Down"></path><path d="M1223 351L1222 668" stroke-width="8" stroke="url(#SvgjsLinearGradient1017)" stroke-linecap="round" class="Up"></path><path d="M472 489L471 94" stroke-width="6" stroke="url(#SvgjsLinearGradient1016)" stroke-linecap="round" class="Down"></path><path d="M239 516L238 887" stroke-width="8" stroke="url(#SvgjsLinearGradient1016)" stroke-linecap="round" class="Down"></path><path d="M1167 279L1166 483" stroke-width="8" stroke="url(#SvgjsLinearGradient1017)" stroke-linecap="round" class="Up"></path><path d="M1165 21L1164 218" stroke-width="6" stroke="url(#SvgjsLinearGradient1016)" stroke-linecap="round" class="Down"></path><path d="M704 124L703 267" stroke-width="6" stroke="url(#SvgjsLinearGradient1017)" stroke-linecap="round" class="Up"></path><path d="M819 283L818 16" stroke-width="6" stroke="url(#SvgjsLinearGradient1016)" stroke-linecap="round" class="Down"></path><path d="M741 324L740 488" stroke-width="6" stroke="url(#SvgjsLinearGradient1017)" stroke-linecap="round" class="Up"></path><path d="M425 484L424 763" stroke-width="6" stroke="url(#SvgjsLinearGradient1017)" stroke-linecap="round" class="Up"></path><path d="M532 96L531 361" stroke-width="8" stroke="url(#SvgjsLinearGradient1016)" stroke-linecap="round" class="Down"></path><path d="M1191 111L1190 371" stroke-width="8" stroke="url(#SvgjsLinearGradient1016)" stroke-linecap="round" class="Down"></path><path d="M98 325L97 636" stroke-width="8" stroke="url(#SvgjsLinearGradient1017)" stroke-linecap="round" class="Up"></path><path d="M182 349L181 204" stroke-width="6" stroke="url(#SvgjsLinearGradient1017)" stroke-linecap="round" class="Up"></path><path d="M807 414L806 97" stroke-width="10" stroke="url(#SvgjsLinearGradient1016)" stroke-linecap="round" class="Down"></path><path d="M1260 168L1259 -165" stroke-width="6" stroke="url(#SvgjsLinearGradient1016)" stroke-linecap="round" class="Down"></path><path d="M260 537L259 269" stroke-width="8" stroke="url(#SvgjsLinearGradient1017)" stroke-linecap="round" class="Up"></path><path d="M1271 325L1270 509" stroke-width="8" stroke="url(#SvgjsLinearGradient1016)" stroke-linecap="round" class="Down"></path><path d="M1000 497L999 886" stroke-width="10" stroke="url(#SvgjsLinearGradient1017)" stroke-linecap="round" class="Up"></path><path d="M620 426L619 20" stroke-width="10" stroke="url(#SvgjsLinearGradient1016)" stroke-linecap="round" class="Down"></path><path d="M742 255L741 -111" stroke-width="6" stroke="url(#SvgjsLinearGradient1016)" stroke-linecap="round" class="Down"></path></g><defs><mask id="SvgjsMask1015"><rect width="1440" height="560" fill="#ffffff"></rect></mask><linearGradient x1="0%" y1="0%" x2="0%" y2="100%" id="SvgjsLinearGradient1016"><stop stop-color="rgba(24, 22, 22, 0)" offset="0"></stop><stop stop-color="rgba(24, 22, 22, 1)" offset="1"></stop></linearGradient><linearGradient x1="0%" y1="100%" x2="0%" y2="0%" id="SvgjsLinearGradient1017"><stop stop-color="rgba(24, 22, 22, 0)" offset="0"></stop><stop stop-color="rgba(24, 22, 22, 1)" offset="1"></stop></linearGradient></defs></svg>